<svg width="21" height="15" viewBox="0 0 21 15" fill="none" xmlns="http://www.w3.org/2000/svg">
<path d="M17.6071 5.17857H17.0893L13.5685 0.777433C13.3744 0.534877 13.1282 0.33907 12.8482 0.204499C12.5682 0.0699289 12.2615 3.88424e-05 11.9508 0H5.02742C4.1804 0 3.41883 0.515592 3.10423 1.30209L1.55357 5.25172C0.661562 5.48281 0 6.28581 0 7.25V10.875C0 11.1611 0.231741 11.3929 0.517857 11.3929H2.07143C2.07143 13.1089 3.46252 14.5 5.17857 14.5C6.89462 14.5 8.28571 13.1089 8.28571 11.3929H12.4286C12.4286 13.1089 13.8197 14.5 15.5357 14.5C17.2518 14.5 18.6429 13.1089 18.6429 11.3929H20.1964C20.4825 11.3929 20.7143 11.1611 20.7143 10.875V8.28571C20.7143 6.56967 19.3232 5.17857 17.6071 5.17857ZM5.17857 12.9464C4.32184 12.9464 3.625 12.2496 3.625 11.3929C3.625 10.5361 4.32184 9.83929 5.17857 9.83929C6.0353 9.83929 6.73214 10.5361 6.73214 11.3929C6.73214 12.2496 6.0353 12.9464 5.17857 12.9464ZM7.50893 5.17857H3.78456L5.02742 2.07143H7.50893V5.17857ZM9.0625 5.17857V2.07143H11.9508L14.4366 5.17857H9.0625ZM15.5357 12.9464C14.679 12.9464 13.9821 12.2496 13.9821 11.3929C13.9821 10.5361 14.679 9.83929 15.5357 9.83929C16.3924 9.83929 17.0893 10.5361 17.0893 11.3929C17.0893 12.2496 16.3924 12.9464 15.5357 12.9464Z" fill="#161826"/>
</svg>
