<svg width="22" height="17" viewBox="0 0 22 17" fill="none" xmlns="http://www.w3.org/2000/svg">
<path d="M0.432617 8.5V12.75C0.432617 13.3377 0.907422 13.8125 1.49512 13.8125H2.55762V7.4375H1.49512C0.907422 7.4375 0.432617 7.9123 0.432617 8.5ZM15.8389 3.1875H12.1201V1.0625C12.1201 0.474805 11.6453 0 11.0576 0C10.4699 0 9.99512 0.474805 9.99512 1.0625V3.1875H6.27637C4.80879 3.1875 3.62012 4.37617 3.62012 5.84375V14.875C3.62012 16.0471 4.57305 17 5.74512 17H16.3701C17.5422 17 18.4951 16.0471 18.4951 14.875V5.84375C18.4951 4.37617 17.3064 3.1875 15.8389 3.1875ZM8.93262 13.8125H6.80762V12.75H8.93262V13.8125ZM7.87012 9.82812C7.13633 9.82812 6.54199 9.23379 6.54199 8.5C6.54199 7.76621 7.13633 7.17188 7.87012 7.17188C8.60391 7.17188 9.19824 7.76621 9.19824 8.5C9.19824 9.23379 8.60391 9.82812 7.87012 9.82812ZM12.1201 13.8125H9.99512V12.75H12.1201V13.8125ZM15.3076 13.8125H13.1826V12.75H15.3076V13.8125ZM14.2451 9.82812C13.5113 9.82812 12.917 9.23379 12.917 8.5C12.917 7.76621 13.5113 7.17188 14.2451 7.17188C14.9789 7.17188 15.5732 7.76621 15.5732 8.5C15.5732 9.23379 14.9789 9.82812 14.2451 9.82812ZM20.6201 7.4375H19.5576V13.8125H20.6201C21.2078 13.8125 21.6826 13.3377 21.6826 12.75V8.5C21.6826 7.9123 21.2078 7.4375 20.6201 7.4375Z" fill="#161826"/>
</svg>
