<svg width="21" height="11" viewBox="0 0 21 11" fill="none" xmlns="http://www.w3.org/2000/svg">
<path d="M15.236 0.818176H5.30204C4.48326 0.818059 3.67715 1.0204 2.95549 1.40718C2.23383 1.79396 1.619 2.35319 1.16574 3.03506C0.712477 3.71694 0.434854 4.50031 0.357583 5.31544C0.280313 6.13056 0.405792 6.95215 0.72285 7.70705C1.03991 8.46195 1.53871 9.12674 2.17484 9.64223C2.81097 10.1577 3.5647 10.5079 4.36891 10.6617C5.17313 10.8154 6.00288 10.7679 6.7843 10.5234C7.56572 10.2789 8.27455 9.84495 8.8477 9.26022H11.6882C12.2613 9.84488 12.97 10.2788 13.7513 10.5233C14.5327 10.7678 15.3623 10.8154 16.1665 10.6618C16.9706 10.5081 17.7243 10.1581 18.3604 9.64275C18.9966 9.12741 19.4954 8.46279 19.8126 7.70805C20.1298 6.9533 20.2555 6.13184 20.1784 5.31679C20.1014 4.50173 19.824 3.71837 19.3711 3.03642C18.9181 2.35447 18.3035 1.79509 17.5821 1.40808C16.8606 1.02106 16.0547 0.818418 15.236 0.818176ZM8.03329 6.15653C8.03329 6.25531 7.99405 6.35004 7.9242 6.41989C7.85436 6.48973 7.75962 6.52897 7.66085 6.52897H6.04693V8.14289C6.04693 8.24167 6.00769 8.3364 5.93784 8.40625C5.86799 8.4761 5.77326 8.51534 5.67448 8.51534H4.9296C4.83082 8.51534 4.73608 8.4761 4.66624 8.40625C4.59639 8.3364 4.55715 8.24167 4.55715 8.14289V6.52897H2.94323C2.84445 6.52897 2.74972 6.48973 2.67987 6.41989C2.61003 6.35004 2.57079 6.25531 2.57079 6.15653V5.41164C2.57079 5.31286 2.61003 5.21813 2.67987 5.14829C2.74972 5.07844 2.84445 5.0392 2.94323 5.0392H4.55715V3.42528C4.55715 3.3265 4.59639 3.23177 4.66624 3.16192C4.73608 3.09208 4.83082 3.05284 4.9296 3.05284H5.67448C5.77326 3.05284 5.86799 3.09208 5.93784 3.16192C6.00769 3.23177 6.04693 3.3265 6.04693 3.42528V5.0392H7.66085C7.75962 5.0392 7.85436 5.07844 7.9242 5.14829C7.99405 5.21813 8.03329 5.31286 8.03329 5.41164V6.15653ZM14.7373 8.51534C14.4917 8.51534 14.2517 8.44252 14.0475 8.30611C13.8434 8.16969 13.6843 7.9758 13.5903 7.74895C13.4963 7.5221 13.4717 7.27248 13.5196 7.03166C13.5675 6.79083 13.6858 6.56962 13.8594 6.396C14.033 6.22238 14.2542 6.10414 14.4951 6.05624C14.7359 6.00833 14.9855 6.03292 15.2124 6.12688C15.4392 6.22085 15.6331 6.37997 15.7695 6.58413C15.9059 6.78829 15.9787 7.02832 15.9787 7.27386C15.9787 7.60312 15.8479 7.91889 15.6151 8.15172C15.3823 8.38454 15.0665 8.51534 14.7373 8.51534ZM16.7236 5.53579C16.4781 5.53579 16.2381 5.46298 16.0339 5.32656C15.8297 5.19015 15.6706 4.99626 15.5767 4.76941C15.4827 4.54256 15.4581 4.29294 15.506 4.05211C15.5539 3.81129 15.6721 3.59008 15.8458 3.41646C16.0194 3.24283 16.2406 3.12459 16.4814 3.07669C16.7223 3.02879 16.9719 3.05337 17.1987 3.14734C17.4256 3.2413 17.6195 3.40042 17.7559 3.60458C17.8923 3.80874 17.9651 4.04877 17.9651 4.29431C17.9651 4.62357 17.8343 4.93935 17.6015 5.17217C17.3687 5.40499 17.0529 5.53579 16.7236 5.53579Z" fill="#161826"/>
</svg>
