<svg width="18" height="17" viewBox="0 0 18 17" fill="none" xmlns="http://www.w3.org/2000/svg">
<path d="M7.29202 16C7.66858 16 7.97384 15.6802 7.97384 15.2857C7.97384 14.8912 7.66858 14.5714 7.29202 14.5714C6.91546 14.5714 6.6102 14.8912 6.6102 15.2857C6.6102 15.6802 6.91546 16 7.29202 16Z" stroke="#909090" stroke-width="2" stroke-linecap="round" stroke-linejoin="round"/>
<path d="M14.792 16C15.1686 16 15.4738 15.6802 15.4738 15.2857C15.4738 14.8912 15.1686 14.5714 14.792 14.5714C14.4155 14.5714 14.1102 14.8912 14.1102 15.2857C14.1102 15.6802 14.4155 16 14.792 16Z" stroke="#909090" stroke-width="2" stroke-linecap="round" stroke-linejoin="round"/>
<path d="M1.83728 1H4.56455L6.39183 10.5643C6.45417 10.8931 6.62494 11.1885 6.87424 11.3988C7.12354 11.609 7.43548 11.7207 7.75546 11.7143H14.3827C14.7027 11.7207 15.0147 11.609 15.264 11.3988C15.5133 11.1885 15.684 10.8931 15.7464 10.5643L16.8373 4.57143H5.24637" stroke="#909090" stroke-width="2" stroke-linecap="round" stroke-linejoin="round"/>
</svg>
