<svg width="20" height="18" viewBox="0 0 20 18" fill="none" xmlns="http://www.w3.org/2000/svg">
<path d="M9.97828 0C4.5235 0 0.108154 4.41442 0.108154 9.87013V11.7208C0.108151 11.9499 0.171953 12.1745 0.29241 12.3694C0.412867 12.5643 0.585221 12.7218 0.790157 12.8243L1.3447 13.1016C1.42223 15.4183 3.32447 17.2727 5.6601 17.2727H6.58543C7.09648 17.2727 7.51075 16.8585 7.51075 16.3474V9.56169C7.51075 9.05064 7.09648 8.63636 6.58543 8.63636H5.6601C4.45171 8.63636 3.35948 9.13292 2.57569 9.93286V9.87013C2.57569 5.78833 5.89648 2.46753 9.97828 2.46753C14.0601 2.46753 17.3809 5.78833 17.3809 9.87013V9.93286C16.5971 9.13292 15.5049 8.63636 14.2965 8.63636H13.3711C12.8601 8.63636 12.4458 9.05064 12.4458 9.56169V16.3474C12.4458 16.8585 12.8601 17.2727 13.3711 17.2727H14.2965C16.6321 17.2727 18.5343 15.4183 18.6119 13.1016L19.1664 12.8243C19.3713 12.7218 19.5437 12.5643 19.6641 12.3694C19.7846 12.1745 19.8484 11.9499 19.8484 11.7208V9.87013C19.8484 4.41538 15.434 0 9.97828 0Z" fill="#161826"/>
</svg>
