<svg width="21" height="17" viewBox="0 0 21 17" fill="none" xmlns="http://www.w3.org/2000/svg">
<path d="M17.812 2.32611C17.3722 1.90569 16.85 1.57219 16.2752 1.34465C15.7004 1.11711 15.0844 1 14.4622 1C13.8401 1 13.224 1.11711 12.6493 1.34465C12.0745 1.57219 11.5523 1.90569 11.1125 2.32611L10.1997 3.19821L9.28694 2.32611C8.39853 1.4773 7.19359 1.00044 5.9372 1.00044C4.6808 1.00044 3.47587 1.4773 2.58746 2.32611C1.69905 3.17492 1.19995 4.32616 1.19995 5.52656C1.19995 6.72696 1.69905 7.87819 2.58746 8.727L3.50024 9.5991L10.1997 16L16.8992 9.5991L17.812 8.727C18.252 8.30679 18.6011 7.80785 18.8392 7.25871C19.0774 6.70957 19.2 6.12097 19.2 5.52656C19.2 4.93214 19.0774 4.34355 18.8392 3.7944C18.6011 3.24526 18.252 2.74633 17.812 2.32611V2.32611Z" stroke="#909090" stroke-width="2" stroke-linecap="round" stroke-linejoin="round"/>
</svg>
