<svg width="22" height="24" viewBox="0 0 22 24" fill="none" xmlns="http://www.w3.org/2000/svg">
<g clip-path="url(#clip0_1_377)">
<path d="M21.2143 19.5H0.785714C0.57733 19.5 0.37748 19.579 0.23013 19.7197C0.0827804 19.8603 0 20.0511 0 20.25L0 21.75C0 21.9489 0.0827804 22.1397 0.23013 22.2803C0.37748 22.421 0.57733 22.5 0.785714 22.5H21.2143C21.4227 22.5 21.6225 22.421 21.7699 22.2803C21.9172 22.1397 22 21.9489 22 21.75V20.25C22 20.0511 21.9172 19.8603 21.7699 19.7197C21.6225 19.579 21.4227 19.5 21.2143 19.5ZM21.2143 13.5H0.785714C0.57733 13.5 0.37748 13.579 0.23013 13.7197C0.0827804 13.8603 0 14.0511 0 14.25L0 15.75C0 15.9489 0.0827804 16.1397 0.23013 16.2803C0.37748 16.421 0.57733 16.5 0.785714 16.5H21.2143C21.4227 16.5 21.6225 16.421 21.7699 16.2803C21.9172 16.1397 22 15.9489 22 15.75V14.25C22 14.0511 21.9172 13.8603 21.7699 13.7197C21.6225 13.579 21.4227 13.5 21.2143 13.5ZM21.2143 7.5H0.785714C0.57733 7.5 0.37748 7.57902 0.23013 7.71967C0.0827804 7.86032 0 8.05109 0 8.25L0 9.75C0 9.94891 0.0827804 10.1397 0.23013 10.2803C0.37748 10.421 0.57733 10.5 0.785714 10.5H21.2143C21.4227 10.5 21.6225 10.421 21.7699 10.2803C21.9172 10.1397 22 9.94891 22 9.75V8.25C22 8.05109 21.9172 7.86032 21.7699 7.71967C21.6225 7.57902 21.4227 7.5 21.2143 7.5ZM21.2143 1.5H0.785714C0.57733 1.5 0.37748 1.57902 0.23013 1.71967C0.0827804 1.86032 0 2.05109 0 2.25L0 3.75C0 3.94891 0.0827804 4.13968 0.23013 4.28033C0.37748 4.42098 0.57733 4.5 0.785714 4.5H21.2143C21.4227 4.5 21.6225 4.42098 21.7699 4.28033C21.9172 4.13968 22 3.94891 22 3.75V2.25C22 2.05109 21.9172 1.86032 21.7699 1.71967C21.6225 1.57902 21.4227 1.5 21.2143 1.5Z" fill="black"/>
</g>
<defs>
<clipPath id="clip0_1_377">
<rect width="22" height="24" fill="white"/>
</clipPath>
</defs>
</svg>
