<svg width="22" height="13" viewBox="0 0 22 13" fill="none" xmlns="http://www.w3.org/2000/svg">
<path d="M6.2828 6.5C7.7761 6.5 8.99113 5.28497 8.99113 3.79167C8.99113 2.29836 7.7761 1.08333 6.2828 1.08333C4.78949 1.08333 3.57446 2.29836 3.57446 3.79167C3.57446 5.28497 4.78949 6.5 6.2828 6.5ZM18.1995 2.16667H10.6161C10.3169 2.16667 10.0745 2.40906 10.0745 2.70833V7.58333H2.49113V0.541667C2.49113 0.242396 2.24873 0 1.94946 0H0.86613C0.566859 0 0.324463 0.242396 0.324463 0.541667V12.4583C0.324463 12.7576 0.566859 13 0.86613 13H1.94946C2.24873 13 2.49113 12.7576 2.49113 12.4583V10.8333H19.8245V12.4583C19.8245 12.7576 20.0669 13 20.3661 13H21.4495C21.7487 13 21.9911 12.7576 21.9911 12.4583V5.95833C21.9911 3.86411 20.2937 2.16667 18.1995 2.16667Z" fill="#161826"/>
</svg>
